<svg width="177" height="29" viewBox="0 0 177 29" fill="none" xmlns="http://www.w3.org/2000/svg">
<path fill-rule="evenodd" clip-rule="evenodd" d="M16.0825 23.935L6.62929 28.8309L8.4347 18.4613L0.786865 11.1175L11.3559 9.60457L16.0825 0.169983L20.8091 9.60457L31.3782 11.1175L23.7304 18.4613L25.5358 28.8309L16.0825 23.935Z" fill="#FBBC04"/>
<path fill-rule="evenodd" clip-rule="evenodd" d="M52.3545 23.935L42.9013 28.8309L44.7067 18.4613L37.0588 11.1175L47.6279 9.60457L52.3545 0.169983L57.0811 9.60457L67.6502 11.1175L60.0023 18.4613L61.8077 28.8309L52.3545 23.935Z" fill="#FBBC04"/>
<path fill-rule="evenodd" clip-rule="evenodd" d="M88.6265 23.935L79.1732 28.8309L80.9786 18.4613L73.3308 11.1175L83.8999 9.60457L88.6265 0.169983L93.3531 9.60457L103.922 11.1175L96.2743 18.4613L98.0797 28.8309L88.6265 23.935Z" fill="#FBBC04"/>
<path fill-rule="evenodd" clip-rule="evenodd" d="M124.898 23.935L115.445 28.8309L117.251 18.4613L109.603 11.1175L120.172 9.60457L124.898 0.169983L129.625 9.60457L140.194 11.1175L132.546 18.4613L134.352 28.8309L124.898 23.935Z" fill="#FBBC04"/>
<path fill-rule="evenodd" clip-rule="evenodd" d="M161.17 23.935L151.717 28.8309L153.522 18.4613L145.875 11.1175L156.444 9.60457L161.17 0.169983L165.897 9.60457L176.466 11.1175L168.818 18.4613L170.623 28.8309L161.17 23.935Z" fill="#FBBC04"/>
</svg>
