<svg width="68" height="80" viewBox="0 0 68 80" fill="none" xmlns="http://www.w3.org/2000/svg">
<g id="Group 125">
<g id="Layer 3">
<g id="Layer 1">
<path id="Vector" d="M67.9367 40.1108V30.2038H53.4124V23.2729H13.3859V30.2172H0.0437116V40.1243C-0.355479 43.9718 1.82471 51.8948 13.0327 55.1524L13.3859 55.2597H15.3972C18.2069 59.8848 23.7648 64.9791 32.9155 64.9791H33.8213C43.0334 64.9791 48.53 59.8714 51.3396 55.2463H54.5485L54.9016 55.139C66.1557 51.8814 68.3359 43.9584 67.9367 40.1108ZM4.64975 40.4192V34.2256H13.3859V50.3128V50.7821C13.3859 50.7821 13.3859 50.8893 13.3859 50.9429C4.06632 47.7255 4.64975 40.7141 4.64975 40.4192ZM48.791 50.0849C48.2997 51.5998 44.753 60.9572 33.852 60.9572H32.9155C21.9224 60.9572 18.4679 51.6669 17.9612 50.0984V27.3081H48.8217L48.791 50.0849ZM53.8116 51.2245H53.2128C53.2128 51.0904 53.3049 50.9563 53.3356 50.8223V34.2256H63.2539V40.4192C63.3614 40.4996 64.1444 48.0606 53.7808 51.2245H53.8116Z" fill="black"/>
<path id="Vector_2" d="M48.1618 75.4358H19.2512V79.4576H48.1618V75.4358Z" fill="black"/>
<path id="Vector_3" d="M26.8512 18.2054L33.6374 15.0952L40.4083 18.2054L39.1186 11.623L44.5844 6.95774L37.0152 5.9925L33.6374 0L30.2443 5.9925L22.675 6.95774L28.1562 11.623L26.8512 18.2054Z" fill="black"/>
</g>
</g>
</g>
</svg>
