<svg width="56" height="75" viewBox="0 0 56 75" fill="none" xmlns="http://www.w3.org/2000/svg">
<g id="gavel-solid 1" clip-path="url(#clip0_377_1640)">
<g id="Layer 2">
<g id="Layer 1">
<path id="Vector" d="M48.7622 0.459781C47.6751 0.458701 46.6024 0.709402 45.6273 1.19242C44.6523 1.67543 43.8012 2.37776 43.1401 3.24486H13.1074C12.2029 2.06621 10.954 1.20138 9.53586 0.771491C8.11769 0.341604 6.6012 0.368197 5.19882 0.847545C3.79644 1.32689 2.5784 2.23499 1.71532 3.44463C0.852237 4.65427 0.387339 6.10488 0.385742 7.59326L0.385742 28.6127C0.403183 30.1871 0.938508 31.7114 1.90828 32.9481C2.87804 34.1848 4.22777 35.0644 5.74707 35.4498C7.26637 35.8352 8.86988 35.7047 10.3077 35.0787C11.7454 34.4527 12.9367 33.3663 13.6958 31.989H26.1429V42.8928H22.3251V46.834H26.1429V74.7242H30.0653V46.834H33.8962V42.8928H30.0653V31.989H42.5125C43.2727 33.3682 44.4662 34.4555 45.9066 35.081C47.347 35.7065 48.953 35.8349 50.4737 35.4461C51.9943 35.0574 53.344 34.1734 54.3117 32.9323C55.2795 31.6913 55.8107 30.163 55.8225 28.5864V7.56699C55.8157 5.68643 55.07 3.88468 53.7478 2.55369C52.4256 1.2227 50.6338 0.470159 48.7622 0.459781ZM7.48531 31.7656C6.64494 31.7656 5.83879 31.4311 5.24333 30.8353C4.64788 30.2394 4.31161 29.4308 4.30816 28.5864V7.56699C4.30816 6.72033 4.64289 5.90834 5.23872 5.30967C5.83456 4.71099 6.64268 4.37466 7.48531 4.37466C8.32794 4.37466 9.13607 4.71099 9.7319 5.30967C10.3277 5.90834 10.6625 6.72033 10.6625 7.56699V28.5864C10.659 29.4308 10.3227 30.2394 9.72729 30.8353C9.13183 31.4311 8.32568 31.7656 7.48531 31.7656ZM14.5849 7.59326V7.18601H41.6365V28.0478H14.5849V7.59326ZM51.9001 28.6127C51.8483 29.4223 51.4918 30.1817 50.9029 30.7366C50.3139 31.2915 49.5369 31.6004 48.7295 31.6004C47.9221 31.6004 47.145 31.2915 46.5561 30.7366C45.9672 30.1817 45.6106 29.4223 45.5589 28.6127V7.59326C45.531 7.15769 45.5924 6.72102 45.7391 6.31021C45.8858 5.8994 46.1148 5.52319 46.412 5.20482C46.7091 4.88646 47.0681 4.6327 47.4667 4.45922C47.8653 4.28575 48.2951 4.19625 48.7295 4.19625C49.1639 4.19625 49.5937 4.28575 49.9923 4.45922C50.3909 4.6327 50.7498 4.88646 51.047 5.20482C51.3441 5.52319 51.5732 5.8994 51.7199 6.31021C51.8666 6.72102 51.928 7.15769 51.9001 7.59326V28.6127Z" fill="black"/>
</g>
</g>
</g>
<defs>
<clipPath id="clip0_377_1640">
<rect width="55.4368" height="74.2644" fill="white" transform="translate(0.385742 0.459778)"/>
</clipPath>
</defs>
</svg>
