<svg width="78" height="75" viewBox="0 0 78 75" fill="none" xmlns="http://www.w3.org/2000/svg">
<g id="scales-solid 1" clip-path="url(#clip0_377_1649)">
<g id="Layer 2">
<g id="Layer 1">
<path id="Vector" d="M71.6231 45.5134V44.7017L64.3307 30.7081V20.4367H41.0034V18.6455H36.7388V20.4367H13.4683V31.2258L5.10974 44.6178V45.5134H0.546631V47.6124C0.667825 51.5245 2.3317 55.2365 5.18564 57.9615C8.03957 60.6866 11.8593 62.2106 15.8352 62.2106C19.8111 62.2106 23.6308 60.6866 26.4847 57.9615C29.3387 55.2365 31.0025 51.5245 31.1237 47.6124V45.5134H24.7126V44.7017L17.7045 31.3098V24.6348H36.7388V70.2961H21.2299V74.4942H56.5265V70.2961H41.0034V24.6348H60.0092V31.6317L51.9349 44.5758V45.4714H47.3718V47.5704C47.493 51.4826 49.1569 55.1945 52.0108 57.9196C54.8648 60.6446 58.6844 62.1686 62.6604 62.1686C66.6363 62.1686 70.456 60.6446 73.3099 57.9196C76.1639 55.1945 77.8277 51.4826 77.9489 47.5704V45.4714L71.6231 45.5134ZM26.7028 49.7115C26.2111 52.1784 24.8641 54.4005 22.8922 55.9978C20.9202 57.5952 18.4458 58.4685 15.892 58.4685C13.3383 58.4685 10.8639 57.5952 8.89194 55.9978C6.91998 54.4005 5.57299 52.1784 5.08131 49.7115H5.1666V49.8514H24.7126V49.7115H26.7028ZM9.64442 45.5134L15.5296 36.0956L20.448 45.5134H9.64442ZM62.3547 36.0956L67.2732 45.5134H56.4696L62.3547 36.0956ZM62.7386 58.4855C60.1873 58.4797 57.7166 57.6057 55.7451 56.0118C53.7735 54.4178 52.4224 52.2019 51.9207 49.7395H52.0202V49.8794H71.6231V49.7395H73.4711C72.9686 52.1991 71.6164 54.4116 69.6443 56.0009C67.6722 57.5902 65.2019 58.4583 62.6533 58.4575L62.7386 58.4855Z" fill="black"/>
<path id="Vector_2" d="M38.928 18.5476C40.561 18.5464 42.1401 17.9723 43.3818 16.9284C44.6236 15.8845 45.4467 14.439 45.7035 12.8515C45.9603 11.264 45.6339 9.63842 44.7829 8.26645C43.932 6.89447 42.6121 5.86598 41.0603 5.36556V0.229889H36.7957V5.36556C35.2439 5.86598 33.9241 6.89447 33.0731 8.26645C32.2222 9.63842 31.8958 11.264 32.1526 12.8515C32.4094 14.439 33.2325 15.8845 34.4743 16.9284C35.716 17.9723 37.2951 18.5464 38.928 18.5476ZM38.928 9.19983C39.4454 9.19983 39.9511 9.35084 40.3812 9.63376C40.8113 9.91669 41.1466 10.3188 41.3446 10.7893C41.5425 11.2598 41.5943 11.7775 41.4934 12.277C41.3925 12.7765 41.1434 13.2352 40.7776 13.5953C40.4118 13.9554 39.9457 14.2007 39.4383 14.3C38.9309 14.3994 38.405 14.3484 37.9271 14.1535C37.4491 13.9586 37.0406 13.6286 36.7532 13.2052C36.4658 12.7817 36.3124 12.2839 36.3124 11.7747C36.3124 11.0918 36.588 10.4369 37.0785 9.95398C37.569 9.4711 38.2343 9.19983 38.928 9.19983Z" fill="black"/>
</g>
</g>
</g>
<defs>
<clipPath id="clip0_377_1649">
<rect width="77.4023" height="74.2644" fill="white" transform="translate(0.546631 0.229889)"/>
</clipPath>
</defs>
</svg>
