<?xml version="1.0" encoding="UTF-8"?>
<svg width="28px" height="28px" viewBox="0 0 28 28" version="1.1" xmlns="http://www.w3.org/2000/svg" xmlns:xlink="http://www.w3.org/1999/xlink">
    <!-- Generator: Sketch 57.1 (83088) - https://sketch.com -->
    <title>Group 6</title>
    <desc>Created with Sketch.</desc>
    <defs>
        <polygon id="path-1" points="0 0.00265263158 27.9976421 0.00265263158 27.9976421 27.9999976 0 27.9999976"></polygon>
    </defs>
    <g id="Welcome" stroke="none" stroke-width="1" fill="none" fill-rule="evenodd">
        <g id="Home--Desktop-HD" transform="translate(-1022.000000, -25.000000)">
            <g id="Group-6" transform="translate(1022.000000, 25.000000)">
                <g id="Group-3">
                    <mask id="mask-2" fill="white">
                        <use xlink:href="#path-1"></use>
                    </mask>
                    <g id="Clip-2"></g>
                    <path d="M14.0152084,2.16286737 C7.47499789,2.16905684 2.21011368,7.41478316 2.16236632,13.9104884 C2.11373474,20.5117095 7.43226105,25.8414358 14.0043032,25.8390787 C20.5253558,25.8370147 25.8144084,20.5756674 25.8365844,14.0292674 C25.8589137,7.49495158 20.5539453,2.17406737 14.0152084,2.16286737 M-0.000119164696,14.0015621 C0.00518736842,6.20429895 6.34114526,-0.0293852632 14.0594189,0.00261743379 C21.7962611,0.0351621053 28.0871242,6.36552 27.9969347,14.1801726 C27.9085137,21.8058989 21.6421137,28.0811411 13.8442611,27.9992042 C6.20144,27.9187411 -0.00336,21.6891832 -0.000119164696,14.0015621" id="Fill-1" fill="#000000" mask="url(#mask-2)"></path>
                </g>
                <path d="M7,10.0950918 C7.03226587,9.31141558 7.35924588,8.72877812 8.00398709,8.318336 C8.51851247,7.99067454 9.02151433,7.64397641 9.52970177,7.30621974 C9.66049377,7.21940099 9.7979118,7.14094684 9.92294205,7.04634036 C10.0289585,6.96644404 10.0972354,6.99528748 10.1634956,7.09133613 C10.3081159,7.30073949 10.4553289,7.50841225 10.6002372,7.71723874 C11.0407239,8.35150595 11.4809226,8.98635003 11.9214093,9.62061724 C12.0640129,9.82627096 12.0582512,9.82194444 11.9208331,10.0290403 C11.6500303,10.437175 11.3754823,10.8432906 11.1234052,11.2623858 C10.8039155,11.7919513 10.8240817,12.2162383 11.2150173,12.6953278 C11.6445566,13.2217205 12.0792816,13.7481133 12.5554913,14.2312409 C13.2820495,14.9681907 14.0431783,15.6708169 14.7956645,16.3815192 C14.9665007,16.5430425 15.1618245,16.6783182 15.3447604,16.8271503 C15.7823663,17.1833668 16.2476286,17.1790403 16.7102981,16.8998358 C17.1649012,16.6261116 17.6059641,16.3287357 18.047027,16.0325136 C18.1467055,15.9655968 18.2158466,15.9716539 18.3068825,16.0356864 C18.9847538,16.5107378 19.6646418,16.982328 20.3436655,17.4553604 C20.5107566,17.5715995 20.6764072,17.6904344 20.845515,17.8035007 C21.0630215,17.9491601 21.0143346,17.9915599 20.920706,18.1305853 C20.4672553,18.8063871 20.0368516,19.4980527 19.5664037,20.1617402 C19.122748,20.7882197 18.4941397,21.0429073 17.7246564,20.9941619 C16.8779654,20.9405131 16.0606594,20.7631259 15.2609268,20.4908439 C14.4972052,20.2306761 13.767478,19.8952269 13.0708809,19.4885344 C12.3137853,19.0469413 11.609698,18.5306438 10.9612116,17.9402186 C10.3856116,17.4161333 9.86013884,16.8464754 9.3882505,16.2251878 C8.95928729,15.6598564 8.5784348,15.0653931 8.24972626,14.437183 C7.7032231,13.3942043 7.30911855,12.2961346 7.10774496,11.1346093 C7.04695836,10.78445 7.03313013,10.425926 7,10.0950918" id="Fill-4" fill="#ED0D27"></path>
            </g>
        </g>
    </g>
</svg>